<svg width="580" height="473" viewBox="0 0 580 473" fill="none" xmlns="http://www.w3.org/2000/svg">
  <path d="M25.6044 302.361C21.8147 372.028 158.337 513.684 326.61 461.253C404.872 436.865 398.243 396.386 457.753 343.039C493.225 311.244 544.191 287.2 558.366 240.984C570.611 201.092 563.102 158.214 541.872 130.323C494.127 67.6012 397.737 24.6512 302.763 123.476C207.789 222.3 35.3979 122.688 25.6044 302.361Z" fill="url(#paint0_linear_3635_141986)"/>
  <path d="M63.0294 148.797C76.3082 172.441 105.391 175.69 151.984 171.196C187.025 167.811 218.979 165.191 254.022 146.13C278.55 132.797 297.966 114.759 312.138 97.2399C327.493 78.2613 348.927 56.6002 338.42 35.0812C323.98 5.52003 240.476 -19.3758 159.39 21.3376C70.3177 66.0752 50.0387 125.688 63.0294 148.797Z" fill="url(#paint1_linear_3635_141986)"/>
  <path d="M401.022 437.963C431.959 394.786 463.642 348.895 505.12 326.291C547.904 302.966 555.795 317.342 558.757 340.197C561.718 363.053 548.518 417.205 490.129 448.016C431.726 478.836 372.075 478.374 401.022 437.963Z" fill="url(#paint2_linear_3635_141986)"/>
  <path d="M472.427 251.412C472.427 151.202 391 69.9668 290.556 69.9668C190.111 69.9668 108.684 151.203 108.684 251.412C108.684 351.621 190.111 432.858 290.556 432.858C391 432.858 472.427 351.621 472.427 251.412Z" fill="#E7862E"/>
  <path d="M290.555 407.756C377.106 407.756 447.269 337.757 447.269 251.409C447.269 165.061 377.106 95.063 290.555 95.063C204.005 95.063 133.842 165.061 133.842 251.409C133.842 337.757 204.005 407.756 290.555 407.756Z" fill="white"/>
  <path d="M285.992 133.275C285.992 133.886 286.392 134.278 286.654 134.468C286.937 134.675 287.282 134.818 287.615 134.92C288.294 135.129 289.169 135.242 290.093 135.242C291.012 135.242 291.887 135.128 292.566 134.919C292.899 134.817 293.244 134.674 293.527 134.469C293.786 134.281 294.193 133.89 294.193 133.275V108.575C294.193 107.964 293.793 107.572 293.531 107.382C293.248 107.175 292.903 107.032 292.57 106.93C291.892 106.721 291.016 106.608 290.093 106.608C289.169 106.608 288.294 106.721 287.615 106.93C287.282 107.032 286.937 107.175 286.654 107.382C286.392 107.572 285.992 107.964 285.992 108.575V133.275ZM285.992 391.034C285.992 391.665 286.422 392.05 286.675 392.224C286.957 392.419 287.299 392.554 287.629 392.651C288.303 392.847 289.173 392.954 290.093 392.954C291.008 392.954 291.877 392.847 292.552 392.651C292.89 392.56 293.213 392.417 293.507 392.226C293.758 392.053 294.193 391.668 294.193 391.034V366.24C294.193 365.609 293.763 365.224 293.51 365.05C293.217 364.858 292.895 364.714 292.556 364.623C291.882 364.427 291.012 364.32 290.093 364.32C289.173 364.32 288.303 364.427 287.629 364.623C287.291 364.714 286.969 364.858 286.675 365.05C286.422 365.224 285.992 365.609 285.992 366.24V391.034ZM148.417 250.866H175.868C177.052 250.866 177.842 249.844 177.842 248.797C177.842 247.751 177.052 246.729 175.868 246.729H148.417C147.232 246.729 146.441 247.751 146.441 248.797C146.441 249.844 147.232 250.866 148.417 250.866Z" fill="#E1E4E5" stroke="#E1E4E5" stroke-width="2"/>
  <path d="M148.57 252.849H176.372C176.98 252.849 177.374 252.458 177.571 252.195C177.781 251.911 177.927 251.568 178.031 251.234C178.243 250.556 178.359 249.681 178.359 248.758C178.359 247.836 178.243 246.961 178.031 246.283C177.927 245.949 177.781 245.606 177.571 245.322C177.374 245.058 176.98 244.668 176.372 244.668H148.57C147.961 244.668 147.567 245.058 147.37 245.322C147.16 245.606 147.015 245.949 146.91 246.283C146.698 246.961 146.582 247.836 146.582 248.758C146.582 249.681 146.698 250.556 146.91 251.234C147.015 251.568 147.16 251.911 147.37 252.195C147.567 252.458 147.961 252.849 148.57 252.849ZM407.906 252.849H431.62C432.231 252.849 432.624 252.455 432.818 252.193C433.027 251.909 433.172 251.566 433.276 251.232C433.487 250.554 433.601 249.681 433.601 248.758C433.601 247.836 433.487 246.963 433.276 246.285C433.172 245.951 433.027 245.608 432.818 245.324C432.624 245.061 432.231 244.668 431.62 244.668H407.906C407.295 244.668 406.902 245.061 406.708 245.324C406.499 245.608 406.354 245.951 406.251 246.285C406.039 246.963 405.925 247.836 405.925 248.758C405.925 249.681 406.039 250.554 406.251 251.232C406.354 251.566 406.499 251.909 406.708 252.193C406.902 252.455 407.295 252.849 407.906 252.849ZM359.785 373.251L359.783 373.247L347.947 351.125V351.124C347.461 350.219 347.72 349.025 348.636 348.456C349.602 347.855 350.796 348.247 351.304 349.195L359.785 373.251ZM359.785 373.251C360.122 373.873 360.757 374.27 361.462 374.27C361.804 374.27 362.143 374.174 362.442 373.992L362.451 373.986C363.367 373.417 363.627 372.223 363.141 371.318L363.14 371.317L351.305 349.197L359.785 373.251ZM217.984 128.361H217.985L230.78 150.53C230.909 150.754 231.08 150.95 231.284 151.107C231.488 151.264 231.722 151.38 231.971 151.447C232.22 151.515 232.48 151.532 232.736 151.499C232.992 151.466 233.239 151.383 233.463 151.254L233.465 151.253C233.916 150.993 234.246 150.564 234.38 150.061C234.515 149.558 234.444 149.023 234.183 148.572L221.391 126.401C221.262 126.178 221.09 125.981 220.886 125.824C220.681 125.666 220.447 125.551 220.198 125.484C219.948 125.417 219.688 125.4 219.432 125.434C219.175 125.468 218.929 125.551 218.705 125.68C218.253 125.941 217.924 126.369 217.789 126.872C217.654 127.374 217.724 127.91 217.984 128.361ZM394.654 304.492C394.426 304.366 394.175 304.288 393.916 304.26C393.657 304.232 393.395 304.256 393.145 304.329C392.896 304.403 392.663 304.526 392.461 304.69C392.259 304.855 392.092 305.057 391.969 305.286C391.721 305.747 391.664 306.287 391.812 306.789C391.959 307.291 392.3 307.714 392.759 307.968L413.913 319.638L413.917 319.64C414.216 319.808 414.543 319.889 414.868 319.889C415.575 319.889 416.248 319.505 416.604 318.852L416.605 318.848C416.853 318.388 416.91 317.849 416.763 317.347C416.616 316.846 416.277 316.422 415.819 316.168L415.817 316.166L394.654 304.492ZM167.163 180.038C166.937 179.915 166.688 179.837 166.431 179.81C166.174 179.782 165.915 179.806 165.667 179.879C165.419 179.952 165.189 180.073 164.988 180.236C164.787 180.398 164.621 180.598 164.498 180.825C164.251 181.282 164.195 181.817 164.341 182.315C164.488 182.814 164.826 183.234 165.281 183.485L188.564 196.241C188.79 196.366 189.039 196.444 189.297 196.472C189.554 196.5 189.814 196.477 190.062 196.404C190.31 196.331 190.541 196.209 190.742 196.047C190.943 195.884 191.109 195.683 191.232 195.456C191.479 194.999 191.536 194.464 191.389 193.966C191.243 193.468 190.905 193.048 190.449 192.797L167.163 180.038ZM414.485 177.651C414.357 177.426 414.185 177.229 413.98 177.07C413.775 176.912 413.54 176.796 413.29 176.729C413.039 176.661 412.778 176.644 412.521 176.679C412.264 176.713 412.016 176.798 411.792 176.928L391.664 188.627C391.213 188.889 390.885 189.318 390.75 189.821C390.616 190.324 390.685 190.859 390.944 191.311C391.072 191.536 391.243 191.734 391.448 191.892C391.653 192.051 391.887 192.167 392.138 192.235C392.388 192.302 392.649 192.319 392.906 192.286C393.163 192.252 393.411 192.167 393.635 192.037L393.636 192.036L413.765 180.337L413.25 179.453L413.766 180.337C414.217 180.074 414.545 179.645 414.68 179.142C414.814 178.639 414.744 178.103 414.485 177.651ZM189.604 305.541H189.603L166.303 318.407H166.302C165.37 318.923 165.013 320.103 165.581 321.041C165.756 321.329 166.003 321.567 166.298 321.732C166.593 321.896 166.925 321.982 167.263 321.98C167.591 321.98 167.916 321.9 168.213 321.739L168.223 321.734L191.523 308.868C192.457 308.352 192.814 307.171 192.245 306.232C191.693 305.319 190.513 305.039 189.604 305.541ZM220.051 373.43L220.05 373.431C219.553 374.372 219.878 375.572 220.825 376.108C221.123 376.279 221.452 376.362 221.779 376.362C222.492 376.362 223.16 375.967 223.508 375.312L223.51 375.309L236.311 351.101L236.313 351.1C236.81 350.158 236.485 348.955 235.533 348.42C235.306 348.293 235.055 348.213 234.795 348.184C234.535 348.155 234.273 348.179 234.023 348.254C233.772 348.328 233.54 348.453 233.339 348.619C233.138 348.785 232.972 348.99 232.852 349.221V349.222L220.051 373.43ZM344.806 145.451V145.452C344.68 145.68 344.6 145.931 344.572 146.19C344.544 146.449 344.567 146.711 344.641 146.961C344.716 147.21 344.839 147.443 345.004 147.645C345.169 147.847 345.372 148.014 345.602 148.137C346.065 148.386 346.607 148.443 347.111 148.297C347.615 148.151 348.042 147.812 348.298 147.355L348.3 147.352L359.991 126.251L359.992 126.25C360.118 126.022 360.198 125.77 360.226 125.511C360.254 125.252 360.23 124.989 360.155 124.739C360.081 124.489 359.957 124.256 359.792 124.054C359.627 123.852 359.422 123.685 359.192 123.562C358.729 123.315 358.187 123.259 357.683 123.406C357.179 123.554 356.754 123.892 356.498 124.35L344.806 145.451Z" fill="#E1E4E5"/>
  <path d="M359.785 373.251L359.783 373.247L347.947 351.125V351.124C347.461 350.219 347.72 349.025 348.636 348.456C349.602 347.855 350.796 348.247 351.304 349.196L359.785 373.251ZM359.785 373.251C360.122 373.873 360.757 374.27 361.462 374.27C361.804 374.27 362.143 374.174 362.442 373.992L362.451 373.986C363.367 373.417 363.627 372.223 363.141 371.318L363.14 371.317L351.305 349.197L359.785 373.251ZM414.485 177.651C414.357 177.426 414.185 177.229 413.98 177.07C413.775 176.912 413.54 176.796 413.29 176.729C413.039 176.661 412.778 176.644 412.521 176.679C412.264 176.713 412.016 176.798 411.792 176.928L391.664 188.627C391.213 188.889 390.885 189.318 390.75 189.821C390.616 190.324 390.685 190.859 390.944 191.311C391.072 191.536 391.243 191.734 391.448 191.892C391.653 192.051 391.887 192.167 392.138 192.235C392.388 192.302 392.649 192.319 392.906 192.286C393.163 192.252 393.411 192.167 393.635 192.037L393.636 192.036L413.765 180.337L413.25 179.453L413.766 180.337C414.217 180.074 414.545 179.645 414.68 179.142C414.814 178.639 414.744 178.103 414.485 177.651ZM414.485 177.651L413.595 178.159M148.57 252.849H176.372C176.98 252.849 177.374 252.458 177.571 252.195C177.781 251.911 177.927 251.568 178.031 251.234C178.243 250.556 178.359 249.681 178.359 248.758C178.359 247.836 178.243 246.961 178.031 246.283C177.927 245.949 177.781 245.606 177.571 245.322C177.374 245.058 176.98 244.668 176.372 244.668H148.57C147.961 244.668 147.567 245.058 147.37 245.322C147.16 245.606 147.015 245.949 146.91 246.283C146.698 246.961 146.582 247.836 146.582 248.758C146.582 249.681 146.698 250.556 146.91 251.234C147.015 251.568 147.16 251.911 147.37 252.195C147.567 252.458 147.961 252.849 148.57 252.849ZM407.906 252.849H431.62C432.231 252.849 432.624 252.455 432.818 252.193C433.027 251.909 433.172 251.566 433.276 251.232C433.487 250.554 433.601 249.681 433.601 248.758C433.601 247.836 433.487 246.963 433.276 246.285C433.172 245.951 433.027 245.608 432.818 245.324C432.624 245.061 432.231 244.668 431.62 244.668H407.906C407.295 244.668 406.903 245.061 406.708 245.324C406.499 245.608 406.354 245.951 406.251 246.285C406.039 246.963 405.925 247.836 405.925 248.758C405.925 249.681 406.039 250.554 406.251 251.232C406.354 251.566 406.499 251.909 406.708 252.193C406.903 252.455 407.295 252.849 407.906 252.849ZM217.984 128.361H217.985L230.78 150.53C230.909 150.754 231.08 150.95 231.284 151.107C231.488 151.264 231.722 151.38 231.971 151.447C232.22 151.515 232.48 151.532 232.736 151.499C232.992 151.466 233.239 151.383 233.463 151.254L233.465 151.253C233.916 150.993 234.246 150.564 234.38 150.061C234.515 149.558 234.444 149.023 234.183 148.572L221.391 126.401C221.262 126.178 221.09 125.981 220.886 125.824C220.681 125.666 220.447 125.551 220.198 125.484C219.948 125.417 219.688 125.4 219.432 125.434C219.175 125.468 218.929 125.551 218.705 125.68C218.253 125.941 217.924 126.369 217.789 126.872C217.654 127.374 217.724 127.91 217.984 128.361ZM394.654 304.492C394.426 304.366 394.175 304.288 393.916 304.26C393.657 304.232 393.395 304.256 393.145 304.329C392.896 304.403 392.663 304.526 392.461 304.69C392.259 304.855 392.092 305.057 391.969 305.286C391.72 305.747 391.664 306.287 391.812 306.789C391.959 307.291 392.3 307.714 392.759 307.968L413.913 319.638L413.917 319.64C414.216 319.808 414.543 319.889 414.868 319.889C415.575 319.889 416.248 319.505 416.604 318.852L416.605 318.848C416.853 318.388 416.91 317.849 416.763 317.347C416.616 316.846 416.277 316.422 415.819 316.168L415.817 316.166L394.654 304.492ZM167.163 180.038C166.937 179.915 166.688 179.837 166.431 179.81C166.174 179.782 165.915 179.806 165.667 179.879C165.419 179.952 165.189 180.073 164.988 180.236C164.787 180.398 164.621 180.598 164.498 180.825C164.251 181.282 164.195 181.817 164.341 182.315C164.488 182.814 164.826 183.234 165.281 183.485L188.564 196.241C188.79 196.366 189.039 196.444 189.297 196.472C189.554 196.5 189.814 196.477 190.062 196.404C190.31 196.331 190.541 196.209 190.742 196.047C190.943 195.884 191.109 195.683 191.232 195.456C191.479 194.999 191.536 194.464 191.389 193.966C191.243 193.468 190.905 193.048 190.449 192.797L167.163 180.038ZM189.604 305.541H189.603L166.303 318.407H166.302C165.37 318.923 165.013 320.103 165.581 321.041C165.756 321.329 166.003 321.567 166.298 321.732C166.593 321.896 166.925 321.982 167.263 321.98C167.591 321.98 167.916 321.9 168.213 321.739L168.223 321.734L191.523 308.868C192.457 308.352 192.814 307.171 192.245 306.232C191.693 305.319 190.513 305.039 189.604 305.541ZM220.051 373.43L220.05 373.431C219.553 374.372 219.878 375.572 220.825 376.108C221.123 376.279 221.452 376.362 221.779 376.362C222.492 376.362 223.16 375.967 223.508 375.312L223.51 375.309L236.311 351.101L236.313 351.1C236.81 350.158 236.485 348.955 235.533 348.42C235.306 348.293 235.055 348.213 234.795 348.184C234.535 348.155 234.273 348.179 234.023 348.254C233.772 348.328 233.54 348.453 233.339 348.619C233.138 348.785 232.972 348.99 232.852 349.221V349.222L220.051 373.43ZM344.806 145.451V145.452C344.68 145.68 344.6 145.931 344.572 146.19C344.544 146.449 344.567 146.711 344.641 146.961C344.716 147.21 344.839 147.443 345.004 147.645C345.169 147.847 345.372 148.014 345.602 148.137C346.065 148.386 346.607 148.443 347.111 148.297C347.615 148.151 348.042 147.812 348.298 147.355L348.3 147.352L359.991 126.251L359.992 126.25C360.118 126.022 360.198 125.77 360.226 125.511C360.254 125.252 360.23 124.989 360.155 124.739C360.081 124.489 359.957 124.256 359.792 124.054C359.627 123.852 359.422 123.685 359.192 123.562C358.729 123.315 358.187 123.259 357.683 123.406C357.179 123.554 356.754 123.892 356.498 124.35L344.806 145.451Z" stroke="#E1E4E5" stroke-width="2"/>
  <path d="M389.014 243.645H292.657C289.544 243.645 287.02 246.163 287.02 249.269C287.02 252.376 289.544 254.894 292.657 254.894H389.014C392.128 254.894 394.652 252.376 394.652 249.269C394.652 246.163 392.128 243.645 389.014 243.645Z" fill="#E7862E"/>
  <path d="M270.076 304.339L295.588 260.254C297.753 256.513 296.468 251.729 292.718 249.57C288.969 247.41 284.174 248.691 282.009 252.432L256.497 296.518C254.332 300.258 255.617 305.042 259.366 307.202C263.116 309.362 267.911 308.08 270.076 304.339Z" fill="#E7862E"/>
  <path d="M305.747 264.509C313.856 256.419 313.856 243.301 305.747 235.211C297.638 227.12 284.489 227.12 276.38 235.211C268.269 243.301 268.269 256.419 276.38 264.509C284.489 272.6 297.638 272.6 305.747 264.509Z" fill="white"/>
  <path d="M301.34 260.114C307.018 254.449 307.018 245.267 301.34 239.602C295.663 233.939 286.458 233.939 280.781 239.602C275.104 245.267 275.104 254.449 280.781 260.114C286.458 265.778 295.663 265.778 301.34 260.114Z" fill="#C3A182"/>
  <path d="M31.8326 194.129C45.7305 197.412 60.43 185.654 60.43 185.654C60.43 185.654 52.5861 168.575 38.6831 165.301C24.7852 162.017 10.0898 173.765 10.0898 173.765C10.0898 173.765 17.9347 190.844 31.8326 194.129Z" fill="url(#paint3_linear_3635_141986)"/>
  <path d="M408.286 49.5121C393.654 59.566 371.301 52.5382 371.301 52.5382C371.301 52.5382 372.686 29.2112 387.327 19.1655C401.959 9.11067 424.302 16.1292 424.302 16.1292C424.302 16.1292 422.918 39.4563 408.286 49.5121Z" fill="url(#paint4_linear_3635_141986)"/>
  <path d="M158.966 107.197C143.104 123.304 113.441 119.908 113.441 119.908C113.441 119.908 109.516 90.3978 125.394 74.3011C141.256 58.1941 170.903 61.5801 170.903 61.5801C170.903 61.5801 174.829 91.0912 158.966 107.197Z" fill="url(#paint5_linear_3635_141986)"/>
  <path d="M90.716 315.23C97.2265 315.23 102.504 320.267 102.504 326.48C102.504 332.693 97.2265 337.729 90.716 337.729C84.2055 337.729 78.9277 332.693 78.9277 326.48C78.9277 320.267 84.2055 315.23 90.716 315.23Z" fill="#E7862E"/>
  <path d="M210.138 444.087C217.498 444.087 223.464 450.268 223.464 457.893C223.464 465.518 217.498 471.699 210.138 471.699C202.779 471.699 196.812 465.518 196.812 457.893C196.812 450.268 202.779 444.087 210.138 444.087Z" fill="#E7862E"/>
  <path d="M492.545 367.386C501.32 367.386 508.433 374.254 508.433 382.726C508.433 391.198 501.32 398.066 492.545 398.066C483.77 398.066 476.656 391.198 476.656 382.726C476.656 374.254 483.77 367.386 492.545 367.386Z" fill="#E7862E"/>
  <path d="M514.071 200.691C517.185 200.691 519.709 198.173 519.709 195.066C519.709 191.96 517.185 189.442 514.071 189.442C510.958 189.442 508.434 191.96 508.434 195.066C508.434 198.173 510.958 200.691 514.071 200.691Z" fill="#E7862E"/>
  <path d="M106.093 138.309C112.038 138.309 116.857 133.502 116.857 127.571C116.857 121.641 112.038 116.833 106.093 116.833C100.149 116.833 95.3301 121.641 95.3301 127.571C95.3301 133.502 100.149 138.309 106.093 138.309Z" fill="#E7862E"/>
  <path d="M104.043 434.882C109.987 434.882 114.806 430.304 114.806 424.656C114.806 419.008 109.987 414.429 104.043 414.429C98.0982 414.429 93.2793 419.008 93.2793 424.656C93.2793 430.304 98.0982 434.882 104.043 434.882Z" fill="#E1E4E5"/>
  <path d="M557.639 300.913C563.866 300.913 568.915 296.334 568.915 290.686C568.915 285.038 563.866 280.459 557.639 280.459C551.412 280.459 546.363 285.038 546.363 290.686C546.363 296.334 551.412 300.913 557.639 300.913Z" fill="#E1E4E5"/>
  <path d="M443.342 437.951C445.323 437.951 446.929 436.348 446.929 434.372C446.929 432.395 445.323 430.792 443.342 430.792C441.36 430.792 439.754 432.395 439.754 434.372C439.754 436.348 441.36 437.951 443.342 437.951Z" fill="#E1E4E5"/>
  <path d="M169.135 77.9703C171.966 77.9703 174.26 75.681 174.26 72.857C174.26 70.033 171.966 67.7437 169.135 67.7437C166.304 67.7437 164.01 70.033 164.01 72.857C164.01 75.681 166.304 77.9703 169.135 77.9703Z" fill="#E1E4E5"/>
  <path d="M491.54 251.529C490.824 254.195 492.409 256.935 495.081 257.649C497.753 258.363 500.499 256.781 501.215 254.116C501.931 251.45 500.346 248.71 497.674 247.996C495.002 247.282 492.256 248.863 491.54 251.529Z" fill="#E1E4E5"/>
  <path d="M490.495 146.491C494.175 146.491 497.158 143.515 497.158 139.844C497.158 136.173 494.175 133.197 490.495 133.197C486.815 133.197 483.832 136.173 483.832 139.844C483.832 143.515 486.815 146.491 490.495 146.491Z" fill="#E1E4E5"/>
  <path d="M83.0316 262.051C85.8622 262.051 88.1569 260.22 88.1569 257.961C88.1569 255.702 85.8622 253.87 83.0316 253.87C80.2009 253.87 77.9062 255.702 77.9062 257.961C77.9062 260.22 80.2009 262.051 83.0316 262.051Z" fill="#E1E4E5"/>
  <path d="M288.532 33.9952C287.042 39.543 290.342 45.2454 295.903 46.732C301.463 48.2185 307.179 44.9262 308.669 39.3784C310.159 33.8306 306.859 28.1282 301.298 26.6417C295.738 25.1551 290.022 28.4474 288.532 33.9952Z" fill="#E1E4E5"/>
  <path d="M9.2943 255.915H9.16002C8.36662 267.139 0 267.311 0 267.311C0 267.311 9.22562 267.491 9.22562 280.459C9.22562 267.491 18.4512 267.311 18.4512 267.311C18.4512 267.311 10.0887 267.139 9.2943 255.915ZM449.612 78.9941H449.38C448.013 98.6345 433.604 98.9372 433.604 98.9372C433.604 98.9372 449.493 99.2521 449.493 121.946C449.493 99.2521 465.382 98.9372 465.382 98.9372C465.382 98.9372 450.979 98.6345 449.612 78.9941Z" fill="#E1E4E5"/>
  <defs>
  <linearGradient id="paint0_linear_3635_141986" x1="188.777" y1="719.95" x2="443.009" y2="-429.754" gradientUnits="userSpaceOnUse">
  <stop stop-color="white"/>
  <stop offset="1" stop-color="#EEEEEE"/>
  </linearGradient>
  <linearGradient id="paint1_linear_3635_141986" x1="152.486" y1="302.03" x2="270.319" y2="-228.701" gradientUnits="userSpaceOnUse">
  <stop stop-color="white"/>
  <stop offset="1" stop-color="#EEEEEE"/>
  </linearGradient>
  <linearGradient id="paint2_linear_3635_141986" x1="435.566" y1="579.706" x2="536.611" y2="111.328" gradientUnits="userSpaceOnUse">
  <stop stop-color="white"/>
  <stop offset="1" stop-color="#EEEEEE"/>
  </linearGradient>
  <linearGradient id="paint3_linear_3635_141986" x1="84.1695" y1="202.296" x2="-37.3905" y2="144.731" gradientUnits="userSpaceOnUse">
  <stop stop-color="white"/>
  <stop offset="1" stop-color="#EEEEEE"/>
  </linearGradient>
  <linearGradient id="paint4_linear_3635_141986" x1="351.289" y1="82.5023" x2="466.182" y2="-38.9335" gradientUnits="userSpaceOnUse">
  <stop stop-color="white"/>
  <stop offset="1" stop-color="#EEEEEE"/>
  </linearGradient>
  <linearGradient id="paint5_linear_3635_141986" x1="95.6779" y1="162.215" x2="209.971" y2="-17.3706" gradientUnits="userSpaceOnUse">
  <stop stop-color="white"/>
  <stop offset="1" stop-color="#EEEEEE"/>
  </linearGradient>
  </defs>
  </svg>
  