<svg width="400" height="400" viewBox="0 0 400 400" fill="none" xmlns="http://www.w3.org/2000/svg">
<g clip-path="url(#clip0_464_4195)">
<path d="M54.5431 122.909L55.1894 121.983C55.1894 121.983 66.7288 119.678 72.1278 112.083C74.2189 109.135 75.2075 105.394 71.3103 102.673C66.8238 99.5181 61.0637 104.015 55.8928 106.962C48.3647 111.289 41.4829 114.709 33.7646 109.286C24.5445 102.787 25.514 92.2629 31.9966 83.175C37.6808 75.183 43.65 71.5176 43.65 71.5176L51.8056 78.2438L51.1592 79.1696C51.1592 79.1696 42.1102 82.1359 37.7378 88.2952C35.5896 91.2994 35.1143 94.6058 37.8899 96.5518C42.6425 99.896 49.3722 94.3035 54.0488 91.5072C60.9686 87.3317 67.3181 84.1386 75.1505 89.6556C86.8039 97.8555 83.6862 108.644 77.3937 117.467C70.8161 126.706 63.6491 130.504 63.6491 130.504L54.5241 122.909H54.5431Z" fill="white"/>
<path d="M69.6209 55.6421L56.6367 66.0904L51.5039 59.7987L88.5934 29.9844L93.7262 36.276L80.7991 46.6676L110.037 82.5846L98.8591 91.5592L69.6209 55.6421Z" fill="white"/>
<path d="M101.098 22.8963L114.462 17.6438L127.123 49.4987C130.621 58.3032 135.659 60.0414 141.647 57.6797C146 55.9603 148.985 51.6904 147.331 45.7955C147.065 44.6997 146.647 43.2071 146.305 42.319L141.476 30.1515C135.773 15.83 132.484 10.5775 132.484 10.5775L144.194 5.98633L157.236 38.8237C162.197 51.2747 155.715 60.9861 142.959 65.9929C127.427 72.0956 118.93 67.7501 114.652 57.0184L101.098 22.9151V22.8963Z" fill="white"/>
<path d="M166.438 1.38142C171.513 0.852397 179.156 0.191115 185.619 0.0210707C206.835 -0.507955 218.849 5.6892 219.325 24.8664C219.876 46.6698 203.052 55.2665 184.174 55.8144C178.604 55.9466 172.312 55.7955 167.787 55.6632L166.438 1.38142ZM188.281 48.7292C199.25 48.4647 204.059 40.5671 203.717 27.247C203.356 12.7366 196.74 6.48274 186.494 6.72836C182.939 6.82283 180.866 7.27628 180.866 7.27628L181.874 48.0112C181.874 48.0112 184.079 48.8426 188.262 48.7292H188.281Z" fill="white"/>
<path d="M237.31 4.28711L271.225 14.4331L268.431 23.6532C268.431 23.6532 260.37 18.8164 251.492 16.1524L248.945 15.3966L244.534 29.9826L264.077 35.8208L262.024 42.5848L242.481 36.7466L237.406 53.4865L241.265 54.639C250.143 57.303 259.553 57.4353 259.553 57.4353L256.72 66.8066L221.551 56.3017L237.291 4.306L237.31 4.28711Z" fill="white"/>
<path d="M290.424 22.6562L303.389 31.6686L301.564 73.1782L321.772 44.4597L331.03 50.8835L299.739 95.3784L287.629 86.9706L289.416 43.4016L268.238 73.4994L259.113 67.1511L290.405 22.6562H290.424Z" fill="white"/>
<path d="M344.622 78.8672L334.528 65.6415L341.029 60.748L369.83 98.5167L363.329 103.41L353.291 90.2412L316.259 118.147L307.59 106.773L344.622 78.8672Z" fill="white"/>
<path d="M66.8044 270.82L75.7393 282.005L57.9835 296.025L70.5874 311.801L88.3433 297.782L97.2782 308.967L54.4856 342.73L45.5506 331.545L64.0668 316.94L51.4629 301.164L32.9467 315.787L24.0117 304.602L66.8044 270.839V270.82Z" fill="white"/>
<path d="M106.724 316.281L119.366 323.064L102.979 353.2C98.4549 361.532 100.356 366.463 106.04 369.524C110.165 371.734 115.374 371.262 118.853 366.199C119.538 365.292 120.412 364.026 120.868 363.176L127.123 351.669C134.499 338.122 136.419 332.228 136.419 332.228L147.502 338.179L130.621 369.24C124.214 381.03 112.58 382.353 100.508 375.853C85.8129 367.956 83.6837 358.698 89.2158 348.533L106.762 316.281H106.724Z" fill="white"/>
<path d="M158.778 341.682L174.537 343.023L193.871 379.866L196.894 344.95L208.148 345.914L203.452 400.007L188.738 398.741L168.359 360.122L165.184 396.719L154.082 395.775L158.778 341.682Z" fill="white"/>
<path d="M231.741 348.401L215.696 353.011L213.434 345.227L259.249 332.096L261.511 339.88L245.542 344.471L258.431 388.853L244.63 392.801L231.741 348.42V348.401Z" fill="white"/>
<path d="M265.008 328.052L294.094 307.93L299.626 315.827C299.626 315.827 290.805 319.096 283.182 324.367L280.996 325.879L289.759 338.386L306.527 326.786L310.595 332.586L293.828 344.187L303.884 358.546L307.192 356.26C314.815 350.989 320.747 343.752 320.747 343.752L326.374 351.782L296.242 372.641L265.008 328.07V328.052Z" fill="white"/>
<path d="M303.086 299.829C305.709 295.484 309.321 289.305 313.047 283.958C319.378 274.851 329.301 262.854 340.518 270.544C347.285 275.192 348.559 283.373 345.65 291.232L376.485 289.778L366.809 303.702L340.423 302.153L335.917 299.054C339.947 293.254 339.662 286.603 334.149 282.825C328.446 278.914 323.142 281.313 319.378 286.717C317.686 289.154 316.678 291.875 316.678 291.875L356.182 319.006L348.065 330.683L303.105 299.829H303.086Z" fill="white"/>
<path d="M0 182.788H13.7256V185.717C13.7256 185.717 11.1021 185.037 6.19742 185.037H3.85913V193.274H13.4024V195.523H3.85913V204.762H6.84378C11.7865 204.762 14.3719 204.119 14.3719 204.119V207.01H0V182.77V182.788Z" fill="#C3A182"/>
<path d="M17.1846 202.548C17.1846 202.548 20.3594 205.306 24.6748 205.306C27.2032 205.306 29.2943 203.87 29.2943 201.017C29.2943 198.164 27.5264 197.257 24.3326 196.18C20.9487 195.066 17.0896 193.781 17.0896 189.133C17.0896 184.485 20.7206 182.369 25.4542 182.369C29.5225 182.369 31.7277 183.295 31.7277 183.295L31.4425 186.658C31.4425 186.658 29.0282 184.447 25.6443 184.447C23.192 184.447 20.8917 185.487 20.8917 188.245C20.8917 191.174 23.1159 191.967 26.0816 192.855C29.3323 193.819 33.4006 195.104 33.4006 200.054C33.4006 205.646 29.0852 207.536 24.5037 207.536C19.9221 207.536 16.9375 206.326 16.9375 206.326C17.0516 205.079 17.1466 203.814 17.2227 202.567L17.1846 202.548Z" fill="#C3A182"/>
<path d="M43.3649 185.115H35.1523V182.791H55.4366V185.115H47.224V207.032H43.3649V185.115Z" fill="#C3A182"/>
<path d="M336.146 204.383V207.028H319.512V204.553C319.512 204.553 323.371 201.473 326.108 198.96C329.131 196.24 331.792 193.368 331.792 189.797C331.792 186.68 329.53 185.149 326.165 185.149C323.276 185.149 320.576 186.661 320.576 186.661V183.581C320.576 183.581 323.637 182.391 327.667 182.391C332.344 182.391 335.842 184.28 335.842 189.306C335.842 195.106 328.142 200.831 323.409 204.383H336.127H336.146Z" fill="#C3A182"/>
<path d="M349.147 207.479C342.265 207.479 340.402 201.15 340.402 195.444C340.402 188.755 343.102 182.369 350.06 182.369C357.018 182.369 358.805 188.699 358.805 194.404C358.805 201.093 356.105 207.479 349.147 207.479ZM349.946 205.042C354.489 205.042 355.097 198.448 355.097 195.406C355.059 191.608 354.128 184.806 349.299 184.806C344.756 184.806 344.147 191.4 344.147 194.442C344.185 198.24 345.117 205.042 349.946 205.042Z" fill="#C3A182"/>
<path d="M378.712 204.383V207.028H362.078V204.553C362.078 204.553 365.937 201.473 368.675 198.96C371.697 196.24 374.359 193.368 374.359 189.797C374.359 186.68 372.097 185.149 368.732 185.149C365.842 185.149 363.143 186.661 363.143 186.661V183.581C363.143 183.581 366.203 182.391 370.234 182.391C374.91 182.391 378.408 184.28 378.408 189.306C378.408 195.106 370.709 200.831 365.975 204.383H378.693H378.712Z" fill="#C3A182"/>
<path d="M400.001 204.383V207.028H383.367V204.553C383.367 204.553 387.226 201.473 389.964 198.96C392.987 196.24 395.648 193.368 395.648 189.797C395.648 186.68 393.386 185.149 390.021 185.149C387.131 185.149 384.432 186.661 384.432 186.661V183.581C384.432 183.581 387.492 182.391 391.523 182.391C396.199 182.391 399.697 184.28 399.697 189.306C399.697 195.106 391.998 200.831 387.264 204.383H399.982H400.001Z" fill="#C3A182"/>
<path d="M188.851 136.148V191.564L161.039 187.218V147.428C167.236 146.521 177.616 143.876 188.851 136.167V136.148Z" fill="#C3A182"/>
<path d="M188.851 95.7747V124.89C179.346 131.748 169.727 135.414 161.039 137.228V95.7559H188.851V95.7747Z" fill="#C3A182"/>
<path d="M188.851 276.834V293.763H161.039V264.496C169.727 266.31 179.327 269.975 188.851 276.834Z" fill="#C3A182"/>
<path d="M231.32 147.431V198.236L203.508 193.89V136.17C214.743 143.879 225.104 146.543 231.32 147.431Z" fill="#C3A182"/>
<path d="M203.508 265.804V210.389L231.32 214.734V254.525C225.123 255.431 214.743 258.077 203.508 265.785V265.804Z" fill="#C3A182"/>
<path d="M161.039 254.542V203.736L188.851 208.082V265.802C177.616 258.094 167.255 255.43 161.039 254.542Z" fill="#C3A182"/>
<path d="M231.32 95.7773V137.249C222.632 135.435 213.032 131.77 203.508 124.912V95.7962H231.32V95.7773Z" fill="#C3A182"/>
<path d="M231.32 264.496V293.763H203.508V276.834C213.013 269.975 222.632 266.31 231.32 264.496Z" fill="#C3A182"/>
<path d="M237.272 192.423V143.148C237.272 143.148 235.047 143.243 231.321 142.695C225.124 141.788 214.744 139.143 203.509 131.434C201.095 129.772 198.642 127.882 196.171 125.728C193.719 127.882 191.247 129.772 188.833 131.434C177.598 139.143 167.237 141.807 161.02 142.695C157.294 143.243 155.07 143.148 155.07 143.148V189.57L161.02 190.496L188.833 194.842L203.49 197.147L231.302 201.492L264.761 206.726V266.846C264.761 266.846 250.18 262.028 231.302 265.958C222.615 267.772 213.014 271.437 203.49 278.296C201.038 280.053 198.585 282.037 196.152 284.266C193.738 282.037 191.266 280.072 188.814 278.296C179.309 271.437 169.689 267.772 161.001 265.958C142.124 262.009 127.543 266.846 127.543 266.846V205.12L155.051 209.579V258.854C155.051 258.854 157.275 258.759 161.001 259.307C167.199 260.214 177.579 262.859 188.814 270.568C191.228 272.231 193.681 274.12 196.152 276.274C198.604 274.12 201.076 272.231 203.49 270.568C214.725 262.859 225.086 260.195 231.302 259.307C235.028 258.759 237.253 258.854 237.253 258.854V212.016L231.302 211.09L203.49 206.745L188.833 204.459L161.02 200.113L127.562 194.88V135.156C127.562 135.156 142.143 139.974 161.02 136.044C169.708 134.231 179.309 130.565 188.833 123.707C191.285 121.95 193.738 119.966 196.171 117.736C198.585 119.966 201.057 121.931 203.509 123.707C213.014 130.565 222.634 134.231 231.321 136.044C250.199 139.993 264.78 135.156 264.78 135.156V196.882L237.272 192.423Z" fill="#C3A182"/>
</g>
<defs>
<clipPath id="clip0_464_4195">
<rect width="400" height="400" fill="white"/>
</clipPath>
</defs>
</svg>
