<svg width="50" height="50" viewBox="0 0 50 50" fill="none" xmlns="http://www.w3.org/2000/svg">
  <g clipPath="url(#clip0_6_9844)">
  <path d="M6.81764 15.3634L6.89843 15.2477C6.89843 15.2477 8.34086 14.9595 9.01573 14.0101C9.27712 13.6417 9.40069 13.1741 8.91355 12.834C8.35274 12.4396 7.63271 13.0017 6.98636 13.3701C6.04534 13.9109 5.18511 14.3384 4.22033 13.6606C3.06782 12.8482 3.18901 11.5327 3.99933 10.3967C4.70985 9.39768 5.45601 8.93951 5.45601 8.93951L6.47545 9.78028L6.39466 9.896C6.39466 9.896 5.26353 10.2668 4.71698 11.0367C4.44846 11.4122 4.38905 11.8255 4.73599 12.0688C5.33007 12.4868 6.17128 11.7877 6.75586 11.4382C7.62083 10.9163 8.41452 10.5171 9.39356 11.2068C10.8502 12.2317 10.4605 13.5803 9.67397 14.6832C8.85176 15.8381 7.95589 16.3128 7.95589 16.3128L6.81526 15.3634H6.81764Z" fill="#002D42"/>
  <path d="M8.70222 6.95511L7.0792 8.26114L6.43759 7.47468L11.0738 3.74789L11.7154 4.53434L10.0995 5.83329L13.7543 10.3229L12.357 11.4447L8.70222 6.95511Z" fill="#002D42"/>
  <path d="M12.6371 2.862L14.3077 2.20544L15.8903 6.1873C16.3275 7.28786 16.9573 7.50514 17.7058 7.20993C18.25 6.99501 18.623 6.46126 18.4163 5.7244C18.383 5.58743 18.3308 5.40085 18.288 5.28985L17.6844 3.7689C16.9715 1.97872 16.5604 1.32216 16.5604 1.32216L18.0242 0.748259L19.6544 4.85293C20.2746 6.4093 19.4643 7.62323 17.8698 8.24908C15.9283 9.01192 14.8661 8.46872 14.3314 7.12727L12.6371 2.86436V2.862Z" fill="#002D42"/>
  <path d="M20.8046 0.172579C21.4391 0.10645 22.3944 0.0237901 23.2023 0.00253465C25.8543 -0.0635935 27.3561 0.711051 27.4155 3.1082C27.4844 5.83362 25.3814 6.90821 23.0217 6.9767C22.3255 6.99323 21.5389 6.97434 20.9733 6.9578L20.8046 0.172579ZM23.535 6.09105C24.9061 6.05799 25.5073 5.07079 25.4646 3.40578C25.4194 1.59197 24.5925 0.810243 23.3116 0.840946C22.8673 0.852754 22.6082 0.909436 22.6082 0.909436L22.7342 6.00131C22.7342 6.00131 23.0098 6.10522 23.5326 6.09105H23.535Z" fill="#002D42"/>
  <path d="M29.6636 0.535789L33.903 1.80403L33.5537 2.95655C33.5537 2.95655 32.5461 2.35195 31.4364 2.01895L31.1179 1.92448L30.5666 3.74773L33.0095 4.4775L32.7528 5.323L30.31 4.59323L29.6755 6.68571L30.1579 6.82978C31.2676 7.16278 32.4439 7.17931 32.4439 7.17931L32.0898 8.35072L27.6937 7.03761L29.6613 0.538151L29.6636 0.535789Z" fill="#002D42"/>
  <path d="M36.3029 2.83188L37.9236 3.95842L37.6954 9.14712L40.2215 5.5573L41.3787 6.36029L37.4673 11.9221L35.9536 10.8712L36.177 5.42505L33.5298 9.18727L32.3891 8.39373L36.3005 2.83188H36.3029Z" fill="#002D42"/>
  <path d="M43.0778 9.85832L41.8159 8.20512L42.6286 7.59343L46.2287 12.3145L45.416 12.9262L44.1614 11.2801L39.5323 14.7683L38.4487 13.3466L43.0778 9.85832Z" fill="#002D42"/>
  <path d="M8.35036 33.8524L9.46723 35.2505L7.24775 37.0029L8.82325 38.975L11.0427 37.2226L12.1596 38.6207L6.81051 42.8411L5.69364 41.443L8.00817 39.6174L6.43268 37.6453L4.11815 39.4733L3.00128 38.0752L8.35036 33.8548V33.8524Z" fill="#002D42"/>
  <path d="M13.3406 39.5349L14.9208 40.3828L12.8724 44.1497C12.3069 45.1913 12.5445 45.8077 13.255 46.1903C13.7707 46.4666 14.4218 46.4076 14.8566 45.7746C14.9422 45.6613 15.0515 45.503 15.1085 45.3967L15.8903 43.9584C16.8124 42.2651 17.0524 41.5282 17.0524 41.5282L18.4377 42.2722L16.3276 46.1548C15.5268 47.6286 14.0725 47.7939 12.5635 46.9814C10.7266 45.9942 10.4605 44.837 11.152 43.5664L13.3453 39.5349H13.3406Z" fill="#002D42"/>
  <path d="M19.847 42.7101L21.817 42.8778L24.2337 47.4831L24.6115 43.1187L26.0183 43.2391L25.4314 50.0007L23.5921 49.8425L21.0447 45.0151L20.6478 49.5898L19.2601 49.4717L19.847 42.7101Z" fill="#002D42"/>
  <path d="M28.9673 43.55L26.9617 44.1262L26.679 43.1532L32.4059 41.5118L32.6887 42.4849L30.6925 43.0588L32.3037 48.6064L30.5785 49.1L28.9673 43.5524V43.55Z" fill="#002D42"/>
  <path d="M33.1259 41.0063L36.7617 38.4911L37.4532 39.4783C37.4532 39.4783 36.3506 39.8869 35.3977 40.5458L35.1244 40.7347L36.2199 42.2982L38.3158 40.8481L38.8243 41.5731L36.7284 43.0232L37.9855 44.8181L38.399 44.5324C39.3519 43.8734 40.0933 42.9689 40.0933 42.9689L40.7967 43.9726L37.0302 46.58L33.1259 41.0087V41.0063Z" fill="#002D42"/>
  <path d="M37.8856 37.4785C38.2135 36.9353 38.665 36.163 39.1307 35.4947C39.9221 34.3563 41.1625 32.8566 42.5645 33.8178C43.4105 34.3988 43.5697 35.4214 43.2061 36.4039L47.0605 36.2221L45.851 37.9627L42.5526 37.769L41.9895 37.3817C42.4932 36.6566 42.4576 35.8253 41.7685 35.353C41.0556 34.8641 40.3926 35.164 39.9221 35.8395C39.7106 36.1441 39.5846 36.4842 39.5846 36.4842L44.5226 39.8757L43.5079 41.3352L37.8879 37.4785H37.8856Z" fill="#002D42"/>
  <path d="M0 22.8486H1.7157V23.2147C1.7157 23.2147 1.38777 23.1297 0.774678 23.1297H0.482392V24.1594H1.6753V24.4404H0.482392V25.5953H0.855473C1.47331 25.5953 1.79649 25.515 1.79649 25.515V25.8764H0V22.8463V22.8486Z" fill="#C3A182"/>
  <path d="M2.1482 25.3185C2.1482 25.3185 2.54505 25.6633 3.08447 25.6633C3.40052 25.6633 3.66191 25.4838 3.66191 25.1272C3.66191 24.7705 3.44092 24.6572 3.0417 24.5226C2.61871 24.3832 2.13632 24.2226 2.13632 23.6416C2.13632 23.0607 2.5902 22.7961 3.1819 22.7961C3.69043 22.7961 3.96608 22.9119 3.96608 22.9119L3.93044 23.3323C3.93044 23.3323 3.62864 23.0559 3.20566 23.0559C2.89912 23.0559 2.61158 23.1858 2.61158 23.5306C2.61158 23.8967 2.88961 23.9959 3.26032 24.1069C3.66667 24.2273 4.1752 24.3879 4.1752 25.0067C4.1752 25.7058 3.63577 25.942 3.06308 25.942C2.49039 25.942 2.11731 25.7908 2.11731 25.7908C2.13157 25.6349 2.14345 25.4767 2.15295 25.3208L2.1482 25.3185Z" fill="#C3A182"/>
  <path d="M5.42043 23.1394H4.39386V22.8489H6.92939V23.1394H5.90282V25.879H5.42043V23.1394Z" fill="#C3A182"/>
  <path d="M42.0181 25.5478V25.8785H39.9388V25.5691C39.9388 25.5691 40.4212 25.1841 40.7634 24.87C41.1412 24.5299 41.4739 24.1709 41.4739 23.7246C41.4739 23.3349 41.1911 23.1436 40.7705 23.1436C40.4093 23.1436 40.0719 23.3325 40.0719 23.3325V22.9476C40.0719 22.9476 40.4544 22.7988 40.9582 22.7988C41.5428 22.7988 41.98 23.0349 41.98 23.6632C41.98 24.3882 41.0176 25.1038 40.4259 25.5478H42.0157H42.0181Z" fill="#C3A182"/>
  <path d="M43.6435 25.9349C42.7832 25.9349 42.5504 25.1437 42.5504 24.4305C42.5504 23.5944 42.8878 22.7961 43.7575 22.7961C44.6273 22.7961 44.8506 23.5873 44.8506 24.3006C44.8506 25.1366 44.5132 25.9349 43.6435 25.9349ZM43.7433 25.6302C44.3112 25.6302 44.3872 24.806 44.3872 24.4257C44.3825 23.951 44.2661 23.1008 43.6625 23.1008C43.0945 23.1008 43.0185 23.925 43.0185 24.3053C43.0232 24.78 43.1397 25.6302 43.7433 25.6302Z" fill="#C3A182"/>
  <path d="M47.3387 25.5478V25.8785H45.2594V25.5691C45.2594 25.5691 45.7418 25.1841 46.084 24.87C46.4618 24.5299 46.7945 24.1709 46.7945 23.7246C46.7945 23.3349 46.5117 23.1436 46.0911 23.1436C45.7299 23.1436 45.3925 23.3325 45.3925 23.3325V22.9476C45.3925 22.9476 45.7751 22.7988 46.2788 22.7988C46.8634 22.7988 47.3007 23.0349 47.3007 23.6632C47.3007 24.3882 46.3382 25.1038 45.7465 25.5478H47.3363H47.3387Z" fill="#C3A182"/>
  <path d="M50.0001 25.5478V25.8785H47.9209V25.5691C47.9209 25.5691 48.4033 25.1841 48.7454 24.87C49.1233 24.5299 49.456 24.1709 49.456 23.7246C49.456 23.3349 49.1732 23.1436 48.7526 23.1436C48.3914 23.1436 48.0539 23.3325 48.0539 23.3325V22.9476C48.0539 22.9476 48.4365 22.7988 48.9403 22.7988C49.5249 22.7988 49.9621 23.0349 49.9621 23.6632C49.9621 24.3882 48.9997 25.1038 48.408 25.5478H49.9978H50.0001Z" fill="#C3A182"/>
  <path d="M23.6063 17.0185V23.9454L20.1298 23.4022V18.4284C20.9044 18.3151 22.2019 17.9844 23.6063 17.0208V17.0185Z" fill="#C3A182"/>
  <path d="M23.6063 11.9717V15.6111C22.4181 16.4685 21.2157 16.9266 20.1298 17.1534V11.9694H23.6063V11.9717Z" fill="#C3A182"/>
  <path d="M23.6063 34.6041V36.7202H20.1298V33.0619C21.2157 33.2886 22.4158 33.7468 23.6063 34.6041Z" fill="#C3A182"/>
  <path d="M28.915 18.4287V24.7793L25.4384 24.2362V17.0211C26.8428 17.9847 28.1379 18.3177 28.915 18.4287Z" fill="#C3A182"/>
  <path d="M25.4385 33.2254V26.2985L28.9151 26.8416V31.8154C28.1404 31.9288 26.8429 32.2594 25.4385 33.223V33.2254Z" fill="#C3A182"/>
  <path d="M20.1298 31.8177V25.4671L23.6063 26.0102V33.2253C22.2019 32.2617 20.9068 31.9287 20.1298 31.8177Z" fill="#C3A182"/>
  <path d="M28.9151 11.972V17.156C27.8291 16.9293 26.629 16.4711 25.4385 15.6138V11.9744H28.9151V11.972Z" fill="#C3A182"/>
  <path d="M28.915 33.0619V36.7202H25.4384V34.6041C26.6266 33.7468 27.829 33.2886 28.915 33.0619Z" fill="#C3A182"/>
  <path d="M29.6588 24.0528V17.8935C29.6588 17.8935 29.3807 17.9053 28.915 17.8368C28.1403 17.7234 26.8428 17.3928 25.4384 16.4292C25.1366 16.2214 24.8301 15.9852 24.5212 15.716C24.2146 15.9852 23.9057 16.2214 23.6039 16.4292C22.1995 17.3928 20.9044 17.7258 20.1274 17.8368C19.6616 17.9053 19.3836 17.8935 19.3836 17.8935V23.6962L20.1274 23.8119L23.6039 24.3551L25.4361 24.6433L28.9126 25.1865L33.0949 25.8407V33.3557C33.0949 33.3557 31.2723 32.7534 28.9126 33.2446C27.8266 33.4714 26.6266 33.9296 25.4361 34.7869C25.1295 35.0065 24.823 35.2545 24.5188 35.5332C24.217 35.2545 23.9081 35.0089 23.6015 34.7869C22.4134 33.9296 21.211 33.4714 20.125 33.2446C17.7653 32.7511 15.9427 33.3557 15.9427 33.3557V25.6399L19.3812 26.1973V32.3566C19.3812 32.3566 19.6592 32.3448 20.125 32.4133C20.8997 32.5267 22.1971 32.8573 23.6015 33.8209C23.9033 34.0287 24.2099 34.2649 24.5188 34.5342C24.8253 34.2649 25.1343 34.0287 25.4361 33.8209C26.8405 32.8573 28.1355 32.5243 28.9126 32.4133C29.3784 32.3448 29.6564 32.3566 29.6564 32.3566V26.5019L28.9126 26.3862L25.4361 25.843L23.6039 25.5572L20.1274 25.0141L15.9451 24.3599V16.8945C15.9451 16.8945 17.7677 17.4967 20.1274 17.0055C21.2134 16.7787 22.4134 16.3206 23.6039 15.4633C23.9105 15.2436 24.217 14.9956 24.5212 14.7169C24.823 14.9956 25.1319 15.2413 25.4384 15.4633C26.6266 16.3206 27.829 16.7787 28.915 17.0055C31.2747 17.4991 33.0973 16.8945 33.0973 16.8945V24.6102L29.6588 24.0528Z" fill="#C3A182"/>
  </g>
  <defs>
  <clipPath id="clip0_6_9844">
  <rect width="50" height="50" fill="white"/>
  </clipPath>
  </defs>
  </svg>
  