<svg width="174" height="123" viewBox="0 0 174 123" fill="none" xmlns="http://www.w3.org/2000/svg">
<path d="M140.427 0H37.0233C32.2642 0 28.4062 3.83756 28.4062 8.57143V111.429C28.4062 116.162 32.2642 120 37.0233 120H140.427C145.186 120 149.044 116.162 149.044 111.429V8.57143C149.044 3.83756 145.186 0 140.427 0Z" fill="url(#paint0_linear_1416_166477)"/>
<g filter="url(#filter0_d_1416_166477)">
<path d="M47.3593 46.2852H163.689C164.831 46.2852 165.927 46.7367 166.735 47.5404C167.543 48.3441 167.997 49.4342 167.997 50.5709V71.9994C167.997 73.1361 167.543 74.2262 166.735 75.0299C165.927 75.8336 164.831 76.2852 163.689 76.2852H47.3593C46.2166 76.2852 45.1207 75.8336 44.3127 75.0299C43.5047 74.2262 43.0508 73.1361 43.0508 71.9994V50.5709C43.0508 49.4342 43.5047 48.3441 44.3127 47.5404C45.1207 46.7367 46.2166 46.2852 47.3593 46.2852V46.2852Z" fill="white"/>
</g>
<path d="M111.126 53.1426H88.7218C87.2941 53.1426 86.1367 54.2938 86.1367 55.714C86.1367 57.1342 87.2941 58.2854 88.7218 58.2854H111.126C112.554 58.2854 113.711 57.1342 113.711 55.714C113.711 54.2938 112.554 53.1426 111.126 53.1426Z" fill="#B4DAFF"/>
<path d="M126.637 64.2852H88.7218C87.2941 64.2852 86.1367 65.4364 86.1367 66.8566C86.1367 68.2767 87.2941 69.428 88.7218 69.428H126.637C128.064 69.428 129.222 68.2767 129.222 66.8566C129.222 65.4364 128.064 64.2852 126.637 64.2852Z" fill="#DEE9FC"/>
<path d="M69.3346 69.4283C73.8557 69.4283 77.5207 65.7826 77.5207 61.2854C77.5207 56.7883 73.8557 53.1426 69.3346 53.1426C64.8135 53.1426 61.1484 56.7883 61.1484 61.2854C61.1484 65.7826 64.8135 69.4283 69.3346 69.4283Z" fill="#1485FD"/>
<path d="M68.6479 63.1426H69.3235L67.7552 58.9866H67.0615L65.4932 63.1426H66.1748L66.5729 62.1051H68.2498L68.6479 63.1426ZM67.4114 59.7888L68.0327 61.5321H66.7901L67.4114 59.7888ZM71.5641 59.5777C72.0165 59.5777 72.2035 59.9577 72.2035 60.3076C72.2035 60.6635 71.9984 61.0314 71.54 61.0314H70.5507V59.5777H71.5641ZM69.9053 63.1426H70.5507V61.6165H71.5762C72.4689 61.6165 72.8429 60.9651 72.8429 60.3076C72.8429 59.6501 72.4689 58.9866 71.5762 58.9866H69.9053V63.1426Z" fill="white"/>
<g filter="url(#filter1_d_1416_166477)">
<path d="M10.3085 83.1406H126.638C127.781 83.1406 128.877 83.5922 129.685 84.3959C130.493 85.1996 130.947 86.2897 130.947 87.4263V108.855C130.947 109.992 130.493 111.082 129.685 111.885C128.877 112.689 127.781 113.141 126.638 113.141H10.3085C9.16581 113.141 8.06993 112.689 7.26193 111.885C6.45393 111.082 6 109.992 6 108.855V87.4263C6 86.2897 6.45393 85.1996 7.26193 84.3959C8.06993 83.5922 9.16581 83.1406 10.3085 83.1406V83.1406Z" fill="white"/>
</g>
<path d="M74.0752 90H51.671C50.2433 90 49.0859 91.1513 49.0859 92.5714C49.0859 93.9916 50.2433 95.1429 51.671 95.1429H74.0752C75.503 95.1429 76.6603 93.9916 76.6603 92.5714C76.6603 91.1513 75.503 90 74.0752 90Z" fill="#B4DAFF"/>
<path d="M89.5858 101.143H51.671C50.2433 101.143 49.0859 102.294 49.0859 103.714C49.0859 105.134 50.2433 106.285 51.671 106.285H89.5858C91.0136 106.285 92.1709 105.134 92.1709 103.714C92.1709 102.294 91.0136 101.143 89.5858 101.143Z" fill="#DEE9FC"/>
<path d="M21.0729 106.284C25.594 106.284 29.259 102.638 29.259 98.1409C29.259 93.6437 25.594 89.998 21.0729 89.998C16.5518 89.998 12.8867 93.6437 12.8867 98.1409C12.8867 102.638 16.5518 106.284 21.0729 106.284Z" fill="#1485FD"/>
<path d="M17.9922 100.544C18.9332 100.544 19.2891 99.9228 19.2891 99.1869V94.9827H18.6678V99.1869C18.6678 99.5971 18.4808 99.9469 17.9922 99.9469C17.944 99.9469 17.6726 99.9349 17.57 99.8987L17.5097 100.478C17.6665 100.514 17.8776 100.544 17.9922 100.544ZM21.6287 99.199C22.4672 99.199 23.0342 98.6501 23.0342 97.9564C23.0342 97.3472 22.5938 96.9672 21.8941 96.7923L21.3694 96.6596C20.8446 96.5269 20.8024 96.2494 20.8024 96.1167C20.8024 95.7367 21.1522 95.5014 21.5443 95.5014C21.9725 95.5014 22.2802 95.7668 22.2802 96.1589H22.8954C22.8954 95.4049 22.3103 94.9344 21.5624 94.9344C20.8265 94.9344 20.1811 95.3989 20.1811 96.1288C20.1811 96.4726 20.3258 96.9973 21.2125 97.2205L21.7433 97.3532C22.0811 97.4437 22.4129 97.6186 22.4129 97.9866C22.4129 98.3304 22.1233 98.632 21.6287 98.632C21.11 98.632 20.7782 98.2882 20.7662 97.9323H20.1509C20.1509 98.6018 20.742 99.199 21.6287 99.199Z" fill="white"/>
<g filter="url(#filter2_d_1416_166477)">
<path d="M126.638 9.42969H10.3085C7.92898 9.42969 6 11.3485 6 13.7154V35.144C6 37.5109 7.92898 39.4297 10.3085 39.4297H126.638C129.018 39.4297 130.947 37.5109 130.947 35.144V13.7154C130.947 11.3485 129.018 9.42969 126.638 9.42969Z" fill="white"/>
</g>
<path d="M72.3487 16.2871H49.9445C48.5168 16.2871 47.3594 17.4384 47.3594 18.8585C47.3594 20.2787 48.5168 21.43 49.9445 21.43H72.3487C73.7764 21.43 74.9338 20.2787 74.9338 18.8585C74.9338 17.4384 73.7764 16.2871 72.3487 16.2871Z" fill="#B4DAFF"/>
<path d="M87.8593 27.4297H49.9445C48.5168 27.4297 47.3594 28.581 47.3594 30.0011C47.3594 31.4213 48.5168 32.5725 49.9445 32.5725H87.8593C89.287 32.5725 90.4444 31.4213 90.4444 30.0011C90.4444 28.581 89.287 27.4297 87.8593 27.4297Z" fill="#DEE9FC"/>
<path d="M32.2838 32.5689C36.8049 32.5689 40.47 28.9232 40.47 24.4261C40.47 19.9289 36.8049 16.2832 32.2838 16.2832C27.7627 16.2832 24.0977 19.9289 24.0977 24.4261C24.0977 28.9232 27.7627 32.5689 32.2838 32.5689Z" fill="#1485FD"/>
<path d="M28.2535 24.2194C28.2535 24.895 28.8567 25.4861 29.7193 25.4861C30.5095 25.4861 31.0704 25.0216 31.1368 24.3702C31.2031 23.767 30.8593 23.3026 30.0148 23.0794L29.484 22.9406C28.9894 22.814 28.9291 22.5606 28.9291 22.3978C28.9291 22.06 29.2609 21.8247 29.6469 21.8247C30.0812 21.8247 30.3707 22.066 30.3707 22.4521H31.0101C31.0101 21.692 30.4311 21.2215 29.659 21.2215C28.9291 21.2215 28.2897 21.6981 28.2897 22.4098C28.2897 22.7778 28.4285 23.2845 29.3212 23.5257L29.846 23.6584C30.232 23.7489 30.5276 23.948 30.5034 24.334C30.4612 24.6416 30.2079 24.901 29.7193 24.901C29.2186 24.901 28.911 24.5572 28.8929 24.2194H28.2535ZM32.5978 21.867H33.575C34.3893 21.867 34.8055 22.5365 34.8055 23.3568C34.8055 24.1832 34.3893 24.8347 33.575 24.8347H32.5978V21.867ZM33.575 25.4258C34.7572 25.4258 35.4449 24.5391 35.4449 23.3568C35.4449 22.1746 34.7572 21.2698 33.575 21.2698H31.9584V25.4258H33.575Z" fill="white"/>
<defs>
<filter id="filter0_d_1416_166477" x="37.0508" y="43.2852" width="136.945" height="42" filterUnits="userSpaceOnUse" color-interpolation-filters="sRGB">
<feFlood flood-opacity="0" result="BackgroundImageFix"/>
<feColorMatrix in="SourceAlpha" type="matrix" values="0 0 0 0 0 0 0 0 0 0 0 0 0 0 0 0 0 0 127 0" result="hardAlpha"/>
<feOffset dy="3"/>
<feGaussianBlur stdDeviation="3"/>
<feColorMatrix type="matrix" values="0 0 0 0 0 0 0 0 0 0 0 0 0 0 0 0 0 0 0.161 0"/>
<feBlend mode="normal" in2="BackgroundImageFix" result="effect1_dropShadow_1416_166477"/>
<feBlend mode="normal" in="SourceGraphic" in2="effect1_dropShadow_1416_166477" result="shape"/>
</filter>
<filter id="filter1_d_1416_166477" x="0" y="80.1406" width="136.945" height="42" filterUnits="userSpaceOnUse" color-interpolation-filters="sRGB">
<feFlood flood-opacity="0" result="BackgroundImageFix"/>
<feColorMatrix in="SourceAlpha" type="matrix" values="0 0 0 0 0 0 0 0 0 0 0 0 0 0 0 0 0 0 127 0" result="hardAlpha"/>
<feOffset dy="3"/>
<feGaussianBlur stdDeviation="3"/>
<feColorMatrix type="matrix" values="0 0 0 0 0 0 0 0 0 0 0 0 0 0 0 0 0 0 0.161 0"/>
<feBlend mode="normal" in2="BackgroundImageFix" result="effect1_dropShadow_1416_166477"/>
<feBlend mode="normal" in="SourceGraphic" in2="effect1_dropShadow_1416_166477" result="shape"/>
</filter>
<filter id="filter2_d_1416_166477" x="0" y="6.42969" width="136.945" height="42" filterUnits="userSpaceOnUse" color-interpolation-filters="sRGB">
<feFlood flood-opacity="0" result="BackgroundImageFix"/>
<feColorMatrix in="SourceAlpha" type="matrix" values="0 0 0 0 0 0 0 0 0 0 0 0 0 0 0 0 0 0 127 0" result="hardAlpha"/>
<feOffset dy="3"/>
<feGaussianBlur stdDeviation="3"/>
<feColorMatrix type="matrix" values="0 0 0 0 0 0 0 0 0 0 0 0 0 0 0 0 0 0 0.161 0"/>
<feBlend mode="normal" in2="BackgroundImageFix" result="effect1_dropShadow_1416_166477"/>
<feBlend mode="normal" in="SourceGraphic" in2="effect1_dropShadow_1416_166477" result="shape"/>
</filter>
<linearGradient id="paint0_linear_1416_166477" x1="88.7253" y1="0" x2="88.7253" y2="120" gradientUnits="userSpaceOnUse">
<stop stop-color="#E1EDFF"/>
<stop offset="1" stop-color="#DAE7FF"/>
</linearGradient>
</defs>
</svg>
