<svg width="340" height="340" viewBox="0 0 340 340" fill="none" xmlns="http://www.w3.org/2000/svg">
  <path d="M185.3 313.933C261.349 313.933 323 252.283 323 176.233C323 100.184 261.349 38.5334 185.3 38.5334C109.25 38.5334 47.5996 100.184 47.5996 176.233C47.5996 252.283 109.25 313.933 185.3 313.933Z" fill="#F5F5FA"/>
  <path d="M175.166 35.0573L64.5996 124.031V268.433C64.5996 279.479 73.5539 288.433 84.5996 288.433H290.069C301.115 288.433 310.069 279.479 310.069 268.433V124.031L200.294 35.0985C192.973 29.1677 182.506 29.1505 175.166 35.0573Z" fill="#0F2C59"/>
  <rect x="100.02" y="63.4036" width="175.453" height="218.411" rx="24" fill="#ECEEF2"/>
  <path d="M115.115 96.3334C115.115 93.8297 117.145 91.8 119.649 91.8H251.634C254.137 91.8 256.167 93.8297 256.167 96.3334C256.167 98.8371 254.137 100.867 251.634 100.867H119.649C117.145 100.867 115.115 98.8371 115.115 96.3334Z" fill="#E7862E"/>
  <path d="M115.115 125.8C115.115 123.296 117.145 121.267 119.649 121.267H251.634C254.137 121.267 256.167 123.296 256.167 125.8C256.167 128.304 254.137 130.333 251.634 130.333H119.649C117.145 130.333 115.115 128.304 115.115 125.8Z" fill="#EADBC8"/>
  <path d="M115.115 155.267C115.115 152.763 117.145 150.733 119.649 150.733H251.634C254.137 150.733 256.167 152.763 256.167 155.267C256.167 157.77 254.137 159.8 251.634 159.8H119.649C117.145 159.8 115.115 157.77 115.115 155.267Z" fill="#EADBC8"/>
  <path d="M115.115 184.733C115.115 182.23 117.145 180.2 119.649 180.2H251.634C254.137 180.2 256.167 182.23 256.167 184.733C256.167 187.237 254.137 189.267 251.634 189.267H119.649C117.145 189.267 115.115 187.237 115.115 184.733Z" fill="#EADBC8"/>
  <path fill-rule="evenodd" clip-rule="evenodd" d="M64.5996 123.798V268.433C64.5996 279.479 73.5539 288.433 84.5996 288.433H232.799C252.259 288.433 260.258 263.461 244.419 252.155L64.5996 123.798Z" fill="url(#paint0_linear_2619_58482)"/>
  <path fill-rule="evenodd" clip-rule="evenodd" d="M310.068 123.798V268.433C310.068 279.479 301.114 288.433 290.068 288.433H85.7764L310.068 123.798Z" fill="#E1DCEB"/>
  <path fill-rule="evenodd" clip-rule="evenodd" d="M310.533 125.931L94.2402 288.433H85.2129L307.873 122.269L310.533 125.931Z" fill="#011625"/>
  <path d="M17.3634 225.54L17.3632 225.539C16.5045 224.985 16.2532 223.834 16.8071 222.97C17.3566 222.105 18.5064 221.853 19.3672 222.409C25.3642 226.281 29.2901 231.648 31.2767 238.496C31.565 239.482 30.996 240.515 30.0177 240.803L30.017 240.803C29.0314 241.092 28.0006 240.524 27.7183 239.537C25.9866 233.566 22.5846 228.909 17.3634 225.54Z" fill="#011625" stroke="#011625"/>
  <path d="M36.5599 284.924L36.079 285.061C35.7145 283.781 35.2848 282.528 34.8489 281.257C34.7853 281.071 34.7216 280.886 34.658 280.699L34.6576 280.698C33.0075 275.833 30.8715 271.267 28.4908 266.694L28.9343 266.463L28.4907 266.694C27.8515 265.465 27.2144 264.232 26.5763 262.997C19.6294 249.548 12.563 235.869 1.25426 225.771L1.25413 225.771C0.493156 225.091 0.417625 223.916 1.09849 223.146C1.77586 222.375 2.94794 222.308 3.71561 222.988L3.71703 222.99C15.4961 233.505 22.8572 247.736 29.9887 261.523C30.5851 262.675 31.1798 263.825 31.7754 264.969L31.7754 264.97C33.386 268.065 34.8942 271.169 36.2255 274.368C36.1465 267.463 36.3321 258.757 37.4941 250.936C38.0818 246.978 38.9369 243.235 40.125 240.025C41.3112 236.82 42.8416 234.113 44.8 232.263L44.8001 232.263C57.0259 220.72 73.0889 218.122 84.0702 225.952L84.0704 225.952C85.063 226.66 86.0164 227.429 86.9169 228.255C92.7798 218.246 104.827 214.3 115.492 219.197C116.427 219.624 116.831 220.729 116.41 221.66L116.41 221.66L116.409 221.663C115.981 222.594 114.885 223.01 113.95 222.582L113.949 222.581C104.729 218.348 94.2898 222.035 89.5977 231.075C90.5813 232.268 91.4682 233.547 92.2309 234.905C92.5978 235.557 93.2687 236.982 93.3757 238.247C93.4964 239.624 93.0251 240.891 91.725 241.556L91.7247 241.556C90.1778 242.345 88.873 242.288 87.8373 241.769C86.8485 241.275 86.1182 240.327 85.6714 239.135L85.6713 239.134C85.2453 237.997 85.0731 236.59 85.0551 235.251C85.0387 234.029 85.1507 232.829 85.3356 231.892C84.2872 230.826 83.1446 229.855 81.9256 228.987C72.3921 222.192 58.2893 224.635 47.3375 234.975C45.4933 236.717 44.0932 239.454 43.0334 242.832C41.9764 246.201 41.2733 250.156 40.7907 254.282L40.7907 254.282C39.4823 265.455 39.9604 277.767 40.186 283.577C40.2198 284.448 40.248 285.173 40.2636 285.726L40.2636 285.727C40.2776 286.265 40.2596 286.7 40.2299 287.022C40.215 287.183 40.197 287.319 40.1776 287.427C40.1613 287.519 40.1377 287.63 40.0995 287.719C39.7559 288.537 39.1206 288.763 38.7155 288.84L38.7102 288.841C38.1375 288.944 37.6631 288.834 37.2812 288.634L37.2786 288.633C36.7582 288.358 36.3447 287.875 36.1579 287.175L36.157 287.172C36.0577 286.788 36.0381 286.294 36.0492 285.819L36.0493 285.814C36.0528 285.71 36.0634 285.578 36.0723 285.467C36.0771 285.406 36.0814 285.352 36.0838 285.313C36.0931 285.158 36.0862 285.086 36.0785 285.059L36.5599 284.924ZM36.5599 284.924C36.6053 285.085 36.5872 285.306 36.5685 285.535C36.5605 285.634 36.5523 285.733 36.549 285.831L35.1311 280.538C35.1945 280.723 35.258 280.908 35.3216 281.094C35.7571 282.364 36.1915 283.631 36.5599 284.924ZM89.4904 238.437L89.493 238.439C89.4936 238.439 89.4955 238.439 89.4991 238.44C89.5084 238.44 89.5302 238.441 89.5692 238.433C89.5951 238.427 89.6243 238.419 89.6574 238.409C89.6535 238.37 89.6491 238.338 89.6444 238.315C89.514 237.716 89.1983 237.082 89.0052 236.736C88.9388 236.619 88.8715 236.503 88.8035 236.387C88.8723 236.911 88.9822 237.404 89.1403 237.823L89.1405 237.824C89.2134 238.018 89.274 238.163 89.341 238.274C89.4055 238.38 89.4557 238.42 89.4904 238.437ZM89.4932 238.439C89.4933 238.439 89.4933 238.439 89.4931 238.439L89.4932 238.439Z" fill="#011625" stroke="#011625"/>
  <path fill-rule="evenodd" clip-rule="evenodd" d="M299.739 71.3363C301.112 65.7711 301.022 60.4119 301.187 54.7671C301.219 53.6647 300.35 52.7481 299.248 52.7149C298.145 52.6817 297.224 53.5517 297.192 54.6541C297.036 60.0068 297.162 65.1003 295.859 70.3866C295.595 71.4558 296.251 72.5382 297.322 72.7972C298.393 73.0629 299.476 72.4055 299.739 71.3363Z" fill="#0F2C59"/>
  <path fill-rule="evenodd" clip-rule="evenodd" d="M311.401 82.1211C320.714 73.6339 329.489 62.7162 335.622 51.6922C336.157 50.7292 335.809 49.5139 334.844 48.9826C333.88 48.4513 332.662 48.7967 332.127 49.7596C326.197 60.4184 317.71 70.9776 308.705 79.1792C307.891 79.9229 307.835 81.1847 308.579 81.9949C309.323 82.8051 310.588 82.8649 311.401 82.1211Z" fill="#0F2C59"/>
  <path fill-rule="evenodd" clip-rule="evenodd" d="M313.761 91.3919C322.278 92.7932 331.058 90.4024 338.803 87.0222C339.813 86.5772 340.274 85.4018 339.832 84.399C339.39 83.3896 338.21 82.9313 337.2 83.3696C330.146 86.4511 322.169 88.7356 314.411 87.4605C313.323 87.2812 312.294 88.0183 312.115 89.1008C311.935 90.1833 312.673 91.2126 313.761 91.3919Z" fill="#0F2C59"/>
  <path fill-rule="evenodd" clip-rule="evenodd" d="M67.7445 51.6973C68.958 51.2649 70.235 50.6902 71.2198 49.8581C72.3894 48.8699 72.8651 47.5971 73.1845 46.2573C73.5946 44.536 73.7584 42.7024 74.2557 40.9784C74.4398 40.3381 74.7942 40.0961 74.9462 39.9887C75.3305 39.7174 75.7189 39.6449 76.0844 39.6721C76.5175 39.7035 77.1124 39.8674 77.5037 40.5934C77.5595 40.6973 77.632 40.8556 77.6808 41.0725C77.7164 41.2315 77.7394 41.7288 77.7771 41.9339C77.8712 42.4388 77.95 42.9438 78.024 43.4515C78.2702 45.1414 78.4118 46.5767 79.1894 48.1292C80.2446 50.2368 81.302 51.5264 82.7359 52.0976C84.1224 52.65 85.7802 52.5461 87.8983 52.113C88.0998 52.0641 88.2993 52.0223 88.4967 51.9881C89.4305 51.8249 90.3233 52.438 90.5067 53.3683C90.6901 54.298 90.0966 55.204 89.1711 55.4083C88.9779 55.4509 88.7875 55.4913 88.5992 55.5283C85.7369 56.2369 82.4234 58.7658 80.4978 60.9802C79.9043 61.6629 79.0353 63.5718 78.1488 64.7895C77.4946 65.6878 76.7595 66.28 76.1423 66.4892C75.7287 66.6301 75.38 66.6085 75.092 66.5373C74.6735 66.4341 74.3262 66.2074 74.0598 65.8468C73.9147 65.6495 73.7801 65.3851 73.7159 65.0476C73.6852 64.8851 73.6818 64.4722 73.6825 64.2853C73.5018 63.6639 73.2807 63.0571 73.1196 62.4301C72.7353 60.9341 71.9814 59.987 71.0859 58.7358C70.2483 57.5648 69.3486 56.829 68.0297 56.2418C67.8582 56.1999 66.4738 55.861 65.9849 55.6664C65.2707 55.3811 64.9303 54.9034 64.8069 54.646C64.5969 54.2094 64.5753 53.8279 64.6172 53.5099C64.6793 53.0405 64.8899 52.6388 65.2637 52.3145C65.4953 52.113 65.8412 51.917 66.3043 51.8214C66.6621 51.7468 67.6112 51.7036 67.7445 51.6973ZM75.8661 49.259C75.9303 49.402 75.9986 49.5457 76.0712 49.6907C77.6167 52.7776 79.3449 54.501 81.4456 55.3372L81.516 55.3644C80.1107 56.4078 78.8386 57.5739 77.8663 58.6919C77.466 59.1522 76.936 60.1084 76.3634 61.089C75.8431 59.3977 74.9922 58.2023 73.9224 56.7063C73.105 55.5646 72.2485 54.7053 71.1961 54.0051C72.0128 53.5859 72.7918 53.0949 73.4704 52.5217C74.6003 51.5669 75.3472 50.4607 75.8661 49.259Z" fill="#0F2C59"/>
  <defs>
  <linearGradient id="paint0_linear_2619_58482" x1="64.5996" y1="123.533" x2="233.466" y2="312.8" gradientUnits="userSpaceOnUse">
  <stop stop-color="#E1DCEB"/>
  <stop offset="1" stop-color="#B3AFBA"/>
  </linearGradient>
  </defs>
  </svg>
  